<svg xmlns="http://www.w3.org/2000/svg" width="50" height="50"><path fill="none" stroke="rgb(6, 172, 72)" stroke-miterlimit="10" stroke-width="2" d="M50 33H9c-4.418 0-8 3.582-8 8s3.582 8 8 8h41"/><circle cx="10" cy="41" r="4" fill="none" stroke="rgb(6, 172, 72)" stroke-linecap="round" stroke-miterlimit="10" stroke-width="2"/><circle cx="45" cy="41" r="4" fill="none" stroke="rgb(6, 172, 72)" stroke-linecap="round" stroke-miterlimit="10" stroke-width="2"/><circle cx="27" cy="41" r="4" fill="none" stroke="rgb(6, 172, 72)" stroke-linecap="round" stroke-miterlimit="10" stroke-width="2"/><path fill="none" stroke="rgb(6, 172, 72)" stroke-linecap="round" stroke-linejoin="round" stroke-miterlimit="10" stroke-width="2" d="M32.5 5h-11c-.828 0-1.5.672-1.5 1.5S20.672 8 21.5 8h11c.828 0 1.5-.672 1.5-1.5S33.328 5 32.5 5z"/><path fill="none" stroke="rgb(6, 172, 72)" stroke-linejoin="round" stroke-miterlimit="10" stroke-width="2" d="M45 1c.552 0 1 .448 1 1v26c0 .552-.448 1-1 1H9c-.552 0-1-.448-1-1V2c0-.552.448-1 1-1h36z"/></svg>
