<svg xmlns="http://www.w3.org/2000/svg" width="50" height="50"><path fill="none" stroke="rgb(6, 172, 72)" stroke-linecap="round" stroke-linejoin="round" stroke-miterlimit="10" stroke-width="1.9697" d="M35 49V15.23c0-5.771 1.973-7.129 5-7.225"/><path fill="none" stroke="rgb(6, 172, 72)" stroke-linecap="round" stroke-linejoin="round" stroke-miterlimit="10" stroke-width="1.9697" d="M40 4.006c-7.412.207-9 6.191-9 11.225V49M13 45V12.23c0-5.769 1.989-7.129 5.016-7.225"/><path fill="none" stroke="rgb(6, 172, 72)" stroke-linecap="round" stroke-linejoin="round" stroke-miterlimit="10" stroke-width="1.9697" d="M17.999 1.005C10.574 1.205 9 7.193 9 12.23V45"/><g fill="none" stroke="rgb(6, 172, 72)" stroke-linecap="round" stroke-linejoin="round" stroke-miterlimit="10" stroke-width="1.9697"><path d="M31 15.282l-18-2.829M31 20.882l-18-3.029M31 26.482l-18-3.229M31 32.082l-18-3.429M31 37.682l-18-3.629M31 43.282l-18-3.829"/></g></svg>
