<svg xmlns="http://www.w3.org/2000/svg" xmlns:xlink="http://www.w3.org/1999/xlink" viewBox="0 0 50 50" version="1.1" width="50" height="50" style="fill: rgb(46, 204, 113);">
<g id="surface1">
<path style=" " d="M 10 0 C 4.488281 0 0 4.488281 0 10 L 0 40 C 0 45.511719 4.488281 50 10 50 L 40 50 C 45.511719 50 50 45.511719 50 40 L 50 10 C 50 4.488281 45.511719 0 40 0 Z M 10 2 L 40 2 C 44.433594 2 48 5.566406 48 10 L 48 40 C 48 44.433594 44.433594 48 40 48 L 34 48 L 34 29 L 38.84375 29 L 39 28.15625 L 40 22.15625 L 40.1875 21 L 34 21 L 34 19 C 34 18.441406 34.0625 18.402344 34.25 18.28125 C 34.4375 18.160156 35.003906 18 36 18 L 40 18 L 40 11.28125 L 39.3125 11.0625 C 39.3125 11.0625 36.132813 10 33 10 C 30.085938 10 27.929688 10.972656 26.65625 12.65625 C 25.382813 14.339844 25 16.546875 25 19 L 25 21 L 22 21 L 22 29 L 25 29 L 25 48 L 10 48 C 5.566406 48 2 44.433594 2 40 L 2 10 C 2 5.566406 5.566406 2 10 2 Z M 33 12 C 35.171875 12 37.175781 12.515625 38 12.75 L 38 16 L 36 16 C 34.847656 16 33.933594 16.089844 33.15625 16.59375 C 32.378906 17.097656 32 18.0625 32 19 L 32 23 L 37.8125 23 L 37.125 27 L 32 27 L 32 48 L 27 48 L 27 27 L 24 27 L 24 23 L 27 23 L 27 19 C 27 16.773438 27.378906 14.992188 28.25 13.84375 C 29.121094 12.695313 30.496094 12 33 12 Z "/>
</g>
</svg>