<svg xmlns="http://www.w3.org/2000/svg" width="48" height="48" fill="rgb(255, 255, 255)"><path d="M44 40H4c-2.206 0-4-1.794-4-4V12c0-2.206 1.794-4 4-4h40c2.206 0 4 1.794 4 4v24c0 2.206-1.794 4-4 4zM4 10c-1.103 0-2 .897-2 2v24c0 1.103.897 2 2 2h40c1.103 0 2-.897 2-2V12c0-1.103-.897-2-2-2H4z"/><path d="M24 29.191L6.457 17.84c-.464-.301-.597-.919-.297-1.383s.919-.596 1.383-.297L24 26.809 40.457 16.16c.464-.299 1.083-.167 1.383.297s.167 1.082-.297 1.383L24 29.191zM6.001 34c-.323 0-.641-.156-.833-.445-.307-.46-.183-1.08.277-1.387l9-6c.46-.307 1.081-.183 1.387.277.307.46.183 1.08-.277 1.387l-9 6c-.171.113-.364.168-.554.168zM41.999 34c-.19 0-.383-.055-.554-.168l-9-6c-.46-.307-.584-.927-.277-1.387.306-.46.926-.584 1.387-.277l9 6c.46.307.584.927.277 1.387-.192.289-.51.445-.833.445z"/></svg>
