<!DOCTYPE svg PUBLIC "-//W3C//DTD SVG 20010904//EN" "http://www.w3.org/TR/2001/REC-SVG-20010904/DTD/svg10.dtd">
<svg version="1.0" xmlns="http://www.w3.org/2000/svg" width="1600px" height="1286px" viewBox="0 0 16000 12860" preserveAspectRatio="xMidYMid meet">
<g id="layer1" fill="#029f38" stroke="none">
 <path d="M4815 12330 c-3 -5 -4 -13 -2 -17 9 -17 390 -675 557 -963 97 -168 252 -435 345 -595 92 -159 247 -427 345 -595 97 -168 262 -451 365 -630 103 -179 274 -473 380 -655 105 -181 224 -387 264 -457 l73 -128 335 0 c301 0 334 2 340 17 6 16 -6 180 -47 658 -47 540 -61 703 -80 935 -11 135 -22 263 -25 285 -2 22 -11 126 -20 230 -8 105 -17 216 -21 248 l-6 57 531 0 531 0 -5 -27 c-2 -16 -7 -62 -10 -103 -8 -95 -38 -455 -65 -762 -23 -268 -51 -597 -80 -940 -11 -128 -26 -309 -34 -403 -9 -93 -12 -173 -8 -177 5 -5 161 -7 347 -6 l339 3 104 180 c57 99 204 353 326 565 122 212 386 669 586 1015 481 834 729 1264 945 1640 98 171 218 379 267 463 49 83 86 157 83 162 -8 13 -2641 14 -2649 1 -3 -5 -13 -89 -21 -187 -16 -185 -41 -459 -51 -551 l-5 -53 -605 0 -604 0 0 23 c0 13 -9 131 -21 263 -12 131 -26 300 -32 374 l-12 135 -1327 3 c-880 1 -1329 -1 -1333 -8z"/>
 <path d="M4622 12193 c-22 -37 -112 -194 -200 -348 -88 -154 -226 -395 -307 -535 -81 -140 -231 -401 -333 -580 -102 -179 -243 -426 -315 -549 l-129 -224 24 -19 c20 -15 343 -243 573 -403 288 -201 385 -271 385 -277 0 -4 -39 -74 -87 -155 -48 -82 -124 -211 -169 -288 -275 -472 -311 -530 -327 -527 -9 1 -74 30 -144 63 -70 34 -155 74 -188 89 -33 15 -112 52 -175 82 -63 30 -158 75 -210 99 -52 24 -153 72 -225 106 -97 46 -133 58 -141 50 -6 -7 -101 -169 -211 -362 -192 -334 -573 -997 -942 -1638 -95 -163 -169 -302 -166 -307 4 -7 825 -10 2330 -10 l2324 0 13 28 c15 28 254 444 528 917 394 681 470 813 470 823 0 6 -47 91 -103 189 -57 98 -204 351 -327 563 -297 513 -471 812 -687 1185 -99 171 -255 441 -348 600 -702 1214 -856 1478 -865 1488 -5 5 -26 -22 -48 -60z m561 -3532 c48 -33 126 -89 175 -123 48 -33 116 -82 152 -107 226 -157 447 -315 458 -326 11 -10 -21 -72 -180 -349 -106 -185 -196 -336 -200 -336 -8 0 -150 66 -453 210 -60 29 -137 65 -170 80 -33 15 -109 51 -170 80 -60 29 -148 70 -195 92 -47 22 -87 42 -89 43 -3 3 283 509 451 798 l39 68 47 -34 c26 -19 86 -62 135 -96z"/>
 <path d="M11616 12228 c-2 -7 -12 -103 -20 -213 -9 -110 -25 -297 -36 -415 -10 -118 -28 -318 -39 -445 -21 -234 -53 -593 -74 -832 l-12 -132 -104 177 c-57 97 -169 289 -249 425 -79 136 -150 246 -156 244 -6 -2 -142 -230 -301 -508 -160 -277 -440 -763 -622 -1079 -182 -316 -414 -720 -517 -898 -102 -178 -186 -329 -186 -335 0 -5 61 -116 137 -246 75 -130 210 -364 301 -521 396 -684 526 -907 548 -942 l24 -38 2320 0 c1560 0 2321 3 2325 10 6 9 -88 176 -475 850 -59 102 -268 466 -465 810 -197 344 -362 630 -367 636 -6 9 -71 -17 -226 -91 -119 -56 -242 -114 -272 -128 -75 -34 -215 -101 -394 -186 l-149 -71 7 63 c4 34 16 159 26 277 21 239 50 571 80 905 11 121 29 336 41 477 l22 256 -63 109 c-35 59 -101 171 -145 248 -103 177 -400 687 -609 1045 -88 151 -196 338 -241 414 -78 135 -100 163 -109 134z m-144 -3758 c91 -157 194 -334 228 -395 35 -60 69 -119 77 -131 13 -20 9 -23 -83 -63 -53 -24 -144 -65 -203 -93 -135 -64 -212 -99 -331 -153 -52 -24 -143 -66 -203 -94 -184 -87 -249 -113 -257 -104 -4 4 -44 73 -90 153 -45 80 -130 225 -187 322 -58 98 -103 182 -101 187 1 5 98 76 213 157 775 543 748 525 760 512 7 -7 86 -141 177 -298z"/>
 <path d="M7162 7883 c-38 -65 -202 -350 -364 -633 -162 -283 -339 -591 -393 -684 l-99 -169 20 -36 c11 -20 116 -202 234 -406 117 -203 298 -518 403 -700 104 -181 206 -358 226 -393 l36 -62 920 0 c736 0 922 3 932 13 7 7 104 170 214 362 396 688 699 1217 699 1220 0 6 -464 805 -806 1390 l-123 210 -915 3 -915 2 -69 -117z"/>
 <path d="M1335 6320 c-3 -5 64 -130 149 -277 280 -486 337 -584 579 -1003 279 -484 498 -860 752 -1300 101 -173 252 -434 336 -580 84 -146 233 -404 332 -575 99 -170 261 -452 361 -625 766 -1324 829 -1431 837 -1423 8 9 101 171 354 618 87 154 198 350 247 436 48 85 88 161 88 168 0 11 -117 215 -405 706 -45 77 -134 230 -197 340 -64 110 -136 234 -161 276 l-45 76 101 59 c56 32 235 135 397 229 162 95 432 251 600 347 309 178 696 401 1095 632 121 70 226 134 233 141 12 11 -3 43 -91 191 -129 222 -443 763 -695 1199 -105 182 -196 338 -204 348 -12 17 -36 5 -363 -184 -473 -273 -1007 -580 -1434 -826 -194 -112 -419 -242 -498 -289 -80 -47 -149 -82 -153 -77 -4 4 -39 62 -77 128 -64 110 -142 243 -408 695 -53 91 -132 226 -176 300 -43 74 -98 167 -122 205 l-42 70 -692 3 c-447 1 -694 -1 -698 -8z"/>
 <path d="M10261 6263 c-49 -85 -347 -609 -556 -978 -87 -154 -214 -378 -282 -498 -68 -119 -123 -221 -123 -226 0 -6 57 -108 126 -228 69 -120 230 -398 356 -618 127 -220 234 -404 238 -410 4 -5 120 -206 258 -445 323 -562 736 -1278 1172 -2030 183 -317 169 -295 186 -279 7 8 93 153 192 324 402 698 501 870 620 1075 215 369 503 872 505 882 1 5 -32 33 -73 62 -41 29 -181 128 -310 219 -129 91 -317 224 -417 294 -100 70 -182 132 -183 136 0 5 55 101 122 215 67 114 158 268 201 342 44 74 110 187 147 250 37 63 75 129 86 146 l19 30 280 -134 c154 -74 400 -192 548 -262 l267 -128 27 46 c14 26 56 99 93 162 37 63 201 349 365 635 255 446 537 936 781 1359 35 60 61 113 58 118 -3 4 -1053 8 -2334 8 l-2329 0 -40 -67z m566 -939 c161 -76 252 -119 368 -174 61 -29 137 -65 170 -80 33 -15 119 -56 190 -90 72 -34 154 -73 183 -86 29 -13 51 -28 49 -32 -21 -37 -254 -437 -342 -587 -62 -104 -119 -205 -129 -222 -9 -18 -22 -33 -29 -33 -6 1 -139 89 -294 198 -224 156 -545 379 -660 458 -18 12 -6 35 177 344 47 80 113 191 145 248 33 56 63 102 66 102 4 0 51 -21 106 -46z"/>
 <path d="M7125 4468 c-9 -13 -93 -156 -187 -318 -228 -394 -530 -914 -753 -1300 -100 -173 -211 -364 -245 -425 -35 -60 -118 -204 -185 -320 -67 -115 -221 -381 -342 -590 -121 -209 -305 -526 -408 -704 -103 -178 -188 -331 -189 -340 -1 -15 285 -16 3329 -21 1832 -3 3333 -3 3337 0 4 3 -20 53 -53 110 -34 58 -164 283 -289 500 -125 217 -328 568 -450 780 -122 212 -301 522 -397 690 -97 168 -256 442 -353 610 -98 168 -223 384 -278 480 l-100 175 -392 3 c-307 2 -391 5 -387 15 3 6 88 158 190 337 102 179 183 328 181 332 -3 5 -457 8 -1009 8 l-1004 0 -16 -22z m1825 -2120 c0 -79 -3 -254 -7 -390 l-6 -248 -685 0 c-544 0 -683 3 -679 13 5 13 365 640 413 720 l29 47 467 0 468 0 0 -142z"/>
 </g>

</svg>