<svg xmlns="http://www.w3.org/2000/svg" xmlns:xlink="http://www.w3.org/1999/xlink" viewBox="0 0 50 50" version="1.1" width="50" height="50" style="fill: rgb(46, 204, 113);">
<g id="surface1">
<path style=" " d="M 10.40625 0 C 4.6875 0 0 4.6875 0 10.40625 L 0 39.59375 C 0 45.3125 4.6875 50 10.40625 50 L 39.59375 50 C 45.3125 50 50 45.3125 50 39.59375 L 50 10.40625 C 50 4.6875 45.3125 0 39.59375 0 Z M 10.40625 2 L 39.59375 2 C 44.222656 2 48 5.777344 48 10.40625 L 48 39.59375 C 48 44.222656 44.222656 48 39.59375 48 L 10.40625 48 C 5.777344 48 2 44.222656 2 39.59375 L 2 10.40625 C 2 5.777344 5.777344 2 10.40625 2 Z M 23.042969 14.996094 C 21.765625 14.996094 20.640625 15.070313 19.6875 15.527344 C 19.683594 15.527344 19.683594 15.527344 19.683594 15.53125 C 19.222656 15.75 18.886719 16.042969 18.625 16.378906 C 18.496094 16.546875 18.367188 16.695313 18.296875 17.0625 C 18.265625 17.246094 18.25 17.539063 18.4375 17.847656 C 18.628906 18.160156 18.996094 18.328125 19.234375 18.359375 C 19.457031 18.390625 19.972656 18.578125 20.070313 18.707031 C 20.070313 18.710938 20.070313 18.710938 20.070313 18.710938 C 20.113281 18.769531 20.277344 19.226563 20.328125 19.628906 C 20.378906 20.035156 20.375 20.363281 20.375 20.363281 C 20.375 20.390625 20.378906 20.417969 20.378906 20.445313 C 20.378906 20.445313 20.449219 21.484375 20.402344 22.558594 C 20.378906 23.097656 20.320313 23.640625 20.234375 24.015625 C 20.191406 24.191406 20.25 24.113281 20.21875 24.171875 C 20.152344 24.128906 20.152344 24.140625 20.046875 24.035156 C 19.597656 23.59375 18.867188 22.589844 17.871094 20.902344 C 16.882813 19.230469 16.109375 17.328125 16.109375 17.328125 C 16.109375 17.328125 16.109375 17.324219 16.109375 17.324219 C 16.109375 17.324219 15.960938 16.765625 15.34375 16.324219 C 14.753906 15.902344 14.167969 15.828125 14.167969 15.828125 C 14.101563 15.816406 14.039063 15.8125 13.972656 15.8125 L 9.167969 15.8125 C 9.167969 15.8125 8.902344 15.796875 8.582031 15.84375 C 8.261719 15.886719 7.800781 15.921875 7.359375 16.433594 C 7.359375 16.433594 7.355469 16.433594 7.355469 16.4375 C 6.960938 16.894531 6.980469 17.417969 7.03125 17.71875 C 7.082031 18.023438 7.195313 18.25 7.195313 18.25 C 7.203125 18.261719 11.070313 26.664063 15.480469 31.378906 C 18.652344 34.773438 21.871094 35 24.644531 35 L 26.679688 35 C 27.179688 35 27.613281 34.976563 28.074219 34.714844 C 28.53125 34.453125 28.84375 33.820313 28.84375 33.359375 C 28.84375 32.796875 28.90625 32.285156 29.019531 31.980469 C 29.125 31.699219 29.199219 31.625 29.371094 31.5625 C 29.390625 31.574219 29.441406 31.597656 29.546875 31.671875 C 29.777344 31.828125 30.117188 32.152344 30.484375 32.550781 C 31.214844 33.351563 32.042969 34.425781 33.105469 35.136719 C 33.871094 35.652344 34.585938 35.875 35.125 35.957031 C 35.664063 36.039063 36.113281 35.964844 36.113281 35.964844 L 35.9375 35.984375 L 40.480469 35.921875 C 40.496094 35.921875 40.511719 35.921875 40.527344 35.921875 C 40.527344 35.921875 41.269531 35.921875 42.015625 35.484375 C 42.390625 35.265625 42.824219 34.859375 42.96875 34.257813 C 43.113281 33.65625 42.933594 33.019531 42.566406 32.421875 C 42.613281 32.5 42.503906 32.300781 42.375 32.101563 C 42.25 31.898438 42.066406 31.628906 41.796875 31.289063 C 41.265625 30.609375 40.402344 29.648438 39.011719 28.378906 C 38.296875 27.730469 37.804688 27.273438 37.589844 27 C 37.375 26.730469 37.421875 26.8125 37.441406 26.71875 C 37.484375 26.523438 38.359375 25.347656 40.09375 23.082031 C 40.097656 23.085938 40.097656 23.085938 40.097656 23.082031 C 41.164063 21.691406 41.90625 20.5625 42.382813 19.628906 C 42.859375 18.695313 43.164063 17.976563 42.933594 17.109375 C 42.832031 16.746094 42.570313 16.421875 42.296875 16.242188 C 42.027344 16.0625 41.769531 15.992188 41.527344 15.949219 C 41.046875 15.855469 40.601563 15.871094 40.183594 15.871094 C 39.304688 15.871094 35.398438 15.902344 35.066406 15.902344 C 34.683594 15.902344 34.179688 16.039063 33.902344 16.203125 C 33.277344 16.566406 33.074219 17.078125 33.074219 17.078125 C 33.054688 17.113281 33.035156 17.15625 33.019531 17.195313 C 33.019531 17.195313 32.226563 19.253906 31.207031 20.941406 C 30.117188 22.757813 29.367188 23.65625 28.949219 24.035156 C 28.910156 23.929688 28.875 23.9375 28.851563 23.671875 C 28.808594 23.160156 28.855469 22.480469 28.855469 21.832031 C 28.855469 20.050781 29.007813 18.800781 28.925781 17.734375 C 28.886719 17.199219 28.785156 16.664063 28.441406 16.183594 C 28.101563 15.703125 27.550781 15.402344 26.980469 15.265625 C 26.414063 15.132813 25.832031 15.019531 24.375 15.003906 C 23.914063 15 23.46875 14.992188 23.042969 14.996094 Z M 24.355469 17.003906 C 25.734375 17.019531 25.976563 17.082031 26.519531 17.210938 C 26.785156 17.273438 26.789063 17.308594 26.8125 17.34375 C 26.839844 17.378906 26.90625 17.527344 26.933594 17.882813 C 26.988281 18.59375 26.855469 19.945313 26.855469 21.832031 C 26.855469 22.359375 26.796875 23.09375 26.859375 23.84375 C 26.921875 24.589844 27.121094 25.515625 27.96875 26.054688 C 28.273438 26.246094 28.75 26.324219 29.148438 26.222656 C 29.546875 26.121094 29.882813 25.902344 30.234375 25.59375 C 30.941406 24.96875 31.757813 23.910156 32.921875 21.972656 C 34.035156 20.125 34.785156 18.148438 34.832031 18.03125 C 34.832031 18.03125 34.984375 17.882813 34.910156 17.925781 C 34.949219 17.90625 34.945313 17.902344 34.957031 17.890625 C 34.980469 17.894531 34.996094 17.902344 35.066406 17.902344 C 35.507813 17.902344 39.355469 17.871094 40.183594 17.871094 C 40.5 17.871094 40.707031 17.886719 40.902344 17.902344 C 40.875 18.011719 40.890625 18.152344 40.601563 18.71875 C 40.21875 19.476563 39.53125 20.535156 38.511719 21.867188 C 36.8125 24.078125 35.785156 24.929688 35.488281 26.296875 C 35.339844 26.976563 35.613281 27.722656 36.019531 28.238281 C 36.425781 28.757813 36.957031 29.214844 37.667969 29.859375 C 38.992188 31.066406 39.773438 31.945313 40.222656 32.519531 C 40.449219 32.808594 40.59375 33.023438 40.683594 33.167969 C 40.773438 33.308594 40.765625 33.3125 40.863281 33.46875 C 40.863281 33.472656 40.863281 33.472656 40.863281 33.472656 C 41.035156 33.753906 41 33.78125 41.003906 33.757813 C 40.839844 33.847656 40.40625 33.921875 40.40625 33.921875 L 35.910156 33.984375 C 35.851563 33.984375 35.792969 33.992188 35.734375 34 C 35.734375 34 35.695313 34.019531 35.421875 33.980469 C 35.152344 33.941406 34.738281 33.824219 34.21875 33.476563 C 33.582031 33.050781 32.757813 32.070313 31.953125 31.199219 C 31.554688 30.761719 31.152344 30.347656 30.675781 30.019531 C 30.203125 29.695313 29.535156 29.410156 28.820313 29.628906 C 27.980469 29.886719 27.40625 30.585938 27.148438 31.277344 C 26.9375 31.84375 26.914063 32.421875 26.894531 32.988281 C 26.832031 33 26.863281 33 26.679688 33 L 24.644531 33 C 21.933594 33 19.714844 32.980469 16.941406 30.015625 C 13.128906 25.9375 9.550781 18.5 9.222656 17.8125 L 13.832031 17.8125 C 13.894531 17.832031 14.117188 17.90625 14.175781 17.949219 C 14.101563 17.894531 14.253906 18.078125 14.253906 18.078125 C 14.257813 18.082031 15.054688 20.074219 16.144531 21.921875 C 17.179688 23.667969 17.933594 24.757813 18.640625 25.457031 C 18.992188 25.804688 19.335938 26.074219 19.777344 26.21875 C 20.21875 26.367188 20.765625 26.316406 21.144531 26.109375 C 21.902344 25.707031 22.042969 25.058594 22.179688 24.472656 C 22.316406 23.890625 22.375 23.253906 22.402344 22.644531 C 22.453125 21.460938 22.378906 20.425781 22.375 20.371094 C 22.375 20.351563 22.382813 19.921875 22.3125 19.378906 C 22.242188 18.824219 22.152344 18.152344 21.671875 17.511719 C 21.574219 17.378906 21.453125 17.363281 21.34375 17.265625 C 22.039063 17.121094 22.921875 16.992188 24.355469 17.003906 Z M 9 17.386719 C 9 17.386719 9.003906 17.386719 9.003906 17.390625 C 9.003906 17.390625 9 17.394531 9 17.394531 C 9 17.390625 9 17.390625 9 17.386719 Z "/>
</g>
</svg>